<?xml version="1.0" standalone="no"?>
<!DOCTYPE svg PUBLIC "-//W3C//DTD SVG 20010904//EN"
 "http://www.w3.org/TR/2001/REC-SVG-20010904/DTD/svg10.dtd">
<svg version="1.0" xmlns="http://www.w3.org/2000/svg"
 width="3584.000000pt" height="835.000000pt" viewBox="0 0 3584.000000 835.000000"
 preserveAspectRatio="xMidYMid meet">

<g transform="translate(0.000000,835.000000) scale(0.100000,-0.100000)"
fill="#000000" stroke="none">
<path d="M220 7115 c0 -7 105 -398 146 -545 121 -429 524 -1924 1495 -5545
141 -525 229 -835 244 -861 55 -93 165 -157 274 -157 95 -1 161 24 226 87 48
45 147 211 829 1394 l774 1343 -23 87 c-13 48 -64 245 -115 437 -51 193 -95
353 -99 357 -6 7 -322 -535 -1237 -2124 -126 -218 -232 -393 -235 -390 -4 4
-95 343 -203 755 l-197 747 414 718 c657 1138 770 1335 774 1353 4 12 -63 68
-253 212 l-258 196 -31 -52 c-17 -29 -219 -378 -450 -777 -230 -399 -422 -729
-426 -733 -9 -11 5 -62 -289 1053 -320 1213 -468 1760 -483 1782 -11 16 -862
668 -872 668 -3 0 -5 -2 -5 -5z"/>
<path d="M1837 5738 l-57 -101 116 -446 c64 -245 117 -447 118 -448 2 -2 74
122 313 540 50 88 90 164 87 169 -7 12 -503 388 -512 388 -4 0 -33 -46 -65
-102z"/>
<path d="M4396 3838 c195 -742 944 -3511 976 -3608 28 -86 116 -178 196 -205
121 -39 257 -10 339 73 30 32 103 147 220 352 97 168 332 577 522 910 l347
605 -260 198 -259 198 -27 -43 c-15 -24 -167 -287 -340 -586 -172 -298 -314
-541 -317 -539 -4 4 -313 1154 -389 1447 -77 298 -175 663 -180 671 -2 4 -192
150 -421 325 -230 174 -423 321 -430 326 -7 5 4 -49 23 -124z"/>
<path d="M8949 1940 c-377 -44 -697 -312 -813 -679 -57 -181 -57 -392 1 -575
105 -335 384 -588 728 -661 95 -20 283 -23 370 -6 376 76 660 337 767 706 20
71 23 101 22 255 0 162 -2 182 -28 264 -117 383 -430 647 -826 696 -93 11
-123 11 -221 0z"/>
</g>
</svg>
